<svg version="1.1" id="Layer_1" xmlns="http://www.w3.org/2000/svg" xmlns:xlink="http://www.w3.org/1999/xlink" x="0px" y="0px" width="100%" viewBox="0 0 512 512" enable-background="new 0 0 512 512" xml:space="preserve">

<path fill="#388A60" opacity="1.000000" stroke="none" d="
M405.695465,476.786499 
	C397.487366,483.240723 388.134644,484.443939 378.455200,485.063660 
	C361.816437,486.128937 345.205109,487.620819 328.580597,488.912109 
	C323.470673,489.308960 318.357300,489.667664 313.242035,489.988525 
	C296.901825,491.013580 280.556030,491.953918 264.219910,493.039795 
	C250.372757,493.960205 236.533249,495.001221 222.695343,496.054443 
	C205.902939,497.332611 189.135391,499.306183 172.321198,499.832855 
	C152.765427,500.445404 140.288010,489.350830 137.826859,469.892090 
	C135.966202,455.181122 138.153625,440.973145 140.688202,426.675568 
	C140.797913,426.056641 140.784454,425.415894 140.866943,424.231293 
	C126.059784,425.464813 111.524574,426.862946 96.956917,427.689087 
	C94.750633,427.814209 90.773476,425.666351 90.354767,423.914978 
	C85.787590,404.811005 84.462158,385.679779 93.920433,367.488953 
	C100.346024,355.130798 110.335266,346.781372 124.322212,344.504547 
	C130.434326,343.509644 136.817612,344.308502 143.054092,343.916443 
	C150.349762,343.457764 157.619751,342.590332 164.900528,341.896423 
	C166.585831,341.735779 168.269638,341.559570 170.942688,341.291351 
	C168.358444,336.352325 166.087158,331.607086 163.462173,327.066315 
	C153.425385,309.704407 144.705338,291.724182 142.260696,271.620819 
	C140.658310,258.443573 141.409897,244.935120 145.592209,232.281937 
	C150.024704,218.871902 151.478378,205.034073 154.014786,191.328552 
	C157.179047,174.230423 160.708267,157.199829 164.300003,139.026413 
	C158.895828,137.373917 152.682617,134.982681 146.247299,133.776993 
	C144.042160,133.363846 141.366562,136.167404 138.756638,137.069366 
	C132.384628,139.271469 127.187500,137.047302 122.809853,132.303558 
	C118.088783,127.187683 117.860100,121.177620 120.163094,115.176849 
	C122.336960,109.512558 126.936127,106.556366 133.087723,105.981232 
	C140.370102,105.300385 144.857803,108.997643 149.395508,114.294540 
	C152.195740,117.563255 157.263885,118.985054 161.455414,120.931137 
	C164.115707,122.166298 167.035934,122.841606 170.217636,123.892891 
	C172.293381,120.321129 174.234177,116.558479 176.574341,113.063194 
	C179.422058,108.809784 182.260574,103.970734 188.551468,105.122902 
	C195.229263,106.345932 195.459839,112.583450 196.742004,117.426361 
	C197.545380,120.460838 196.833008,124.015526 196.297256,127.253502 
	C195.716278,130.764938 195.698181,133.290054 200.088303,134.195999 
	C203.721451,134.945724 207.187836,136.503540 210.564392,137.647842 
	C213.477280,131.923065 216.021713,126.429199 219.019363,121.194885 
	C221.222458,117.347954 224.274643,114.057884 229.400604,115.284348 
	C233.806808,116.338585 236.981293,121.432312 236.993164,126.824936 
	C237.007309,133.251831 236.996475,139.678787 236.996475,146.713348 
	C241.060333,148.163879 245.969574,149.916168 250.852081,151.658920 
	C253.992355,146.868317 256.752258,141.641891 260.479126,137.232834 
	C265.013977,131.867828 271.301453,133.141098 275.102386,139.184036 
	C278.647430,144.820221 278.713318,150.855301 277.413208,156.891342 
	C276.746124,159.988419 277.615723,161.164719 280.233978,161.966888 
	C283.210724,162.878876 286.162231,163.873108 289.359344,164.907501 
	C293.003662,158.671906 295.541534,149.327713 305.052429,152.474243 
	C314.365631,155.555405 316.328979,164.063431 313.646057,173.393890 
	C321.345917,175.925522 328.423767,178.252625 336.788971,181.003021 
	C327.756287,169.923187 319.665527,159.982529 311.552979,150.059692 
	C309.672058,147.759048 307.254517,145.764999 305.890778,143.200775 
	C302.932678,137.638840 298.435394,136.511475 292.643707,136.916519 
	C284.589142,137.479813 276.876160,136.311249 270.302002,130.855438 
	C265.497192,126.867989 265.516907,121.553841 266.215546,116.297127 
	C266.637360,113.123749 267.708069,109.579506 269.675659,107.174019 
	C272.756958,103.406982 271.626434,100.718552 269.130798,97.647278 
	C262.063019,88.949272 255.025940,80.226242 247.995636,71.497864 
	C245.586349,68.506638 243.081390,67.824875 238.948090,68.706596 
	C221.276962,72.476227 203.537842,76.102325 185.663422,78.663254 
	C177.769073,79.794304 169.447098,78.680504 161.408264,77.785942 
	C156.578323,77.248459 152.198624,74.582939 150.886734,69.327026 
	C150.456680,67.604141 151.041763,64.774231 152.259399,63.732269 
	C153.492737,62.676868 157.096130,62.281868 157.921448,63.185970 
	C165.959213,71.991013 176.103409,69.049583 185.369476,67.737732 
	C200.962357,65.530159 216.369888,62.007748 231.845673,58.988586 
	C233.221939,58.720089 234.526932,58.086075 236.380447,57.442997 
	C233.494141,53.990746 231.146393,50.828014 228.396729,48.065327 
	C227.268829,46.932095 225.294647,46.154938 223.669235,46.087479 
	C216.719681,45.799038 211.344238,42.833183 208.926529,36.381203 
	C206.629700,30.251810 207.224854,24.021799 211.813110,18.738211 
	C215.243408,14.788042 223.998001,12.828852 228.781189,14.929540 
	C236.190277,18.183481 240.101868,24.193432 239.677612,30.808039 
	C239.550476,32.789959 240.281876,35.169079 241.413330,36.823708 
	C244.474579,41.300423 248.470581,45.193619 251.151093,49.860855 
	C254.461975,55.625698 259.107117,53.776661 263.899597,53.641041 
	C271.460205,53.427082 279.293274,52.710548 286.548401,54.307922 
	C296.343781,56.464596 301.080109,65.844063 298.091095,75.454193 
	C296.065979,81.965233 293.075287,88.232445 289.949310,94.317368 
	C288.660950,96.825203 288.652100,97.954628 290.485565,100.148048 
	C296.820435,107.726494 302.658783,115.719551 308.976013,123.313622 
	C310.187927,124.770500 312.663422,125.737152 314.641663,125.902000 
	C325.177826,126.779953 335.836426,126.660248 346.274323,128.142166 
	C364.933563,130.791306 380.098969,147.807968 378.867371,166.390579 
	C378.265503,175.471466 376.297424,184.461792 374.947754,193.493118 
	C374.426666,193.579910 373.905609,193.666687 373.384521,193.753479 
	C375.807281,194.608200 378.224945,195.477753 380.653687,196.315170 
	C393.875214,200.873840 407.100555,205.421432 420.320709,209.984009 
	C421.408020,210.359253 422.946320,210.512070 423.446320,211.296494 
	C424.812469,213.439697 426.992767,216.161942 426.533813,218.108612 
	C425.875031,220.902893 423.164673,222.534821 419.444702,221.289703 
	C405.405457,216.590622 391.277710,212.155960 377.181091,207.628433 
	C376.440826,207.390686 375.682404,207.209473 373.713867,206.664703 
	C380.630798,215.572037 386.829773,223.538513 393.010925,231.518784 
	C400.975647,241.801743 408.943909,252.082077 416.870667,262.394287 
	C418.945831,265.093933 418.597870,268.233429 415.923004,269.686737 
	C414.151398,270.649261 411.217072,269.687897 408.866302,269.249695 
	C408.055206,269.098511 407.365051,267.982544 406.737579,267.211334 
	C400.495453,259.538940 394.284912,251.840836 388.051849,244.161041 
	C381.111816,235.610214 374.157684,227.070862 366.631470,217.815445 
	C361.559967,238.003098 360.040680,257.388245 368.621002,275.835297 
	C377.781677,295.530029 388.171967,314.666107 398.386017,333.854126 
	C409.823151,355.339905 420.194305,377.347748 423.683167,401.566437 
	C426.295288,419.698853 426.942413,438.131775 420.174011,455.959900 
	C417.086121,464.093475 412.223877,470.735382 405.695465,476.786499 
M207.794891,487.097229 
	C237.034668,485.012360 266.278107,482.977234 295.513214,480.828735 
	C325.079468,478.655945 354.634766,476.333374 384.200592,474.154144 
	C395.494781,473.321686 402.989075,467.056610 407.912231,457.472900 
	C417.040680,439.702789 416.457092,420.788513 413.382507,401.832855 
	C410.317078,382.933868 403.202057,365.374847 394.182281,348.569794 
	C384.741943,330.981079 374.981689,313.559021 365.821442,295.826385 
	C355.871674,276.565369 349.924927,256.255951 353.044373,234.270218 
	C354.320984,225.272568 356.424774,216.392288 358.208038,207.170135 
	C347.737213,207.911346 337.130463,208.641052 326.527069,209.416656 
	C292.141571,211.931915 257.758392,214.478531 223.372208,216.984085 
	C203.437973,218.436584 183.494614,219.770309 163.572235,221.367859 
	C161.864655,221.504791 159.142014,222.950989 158.825424,224.257690 
	C156.287994,234.730209 153.358032,245.221832 152.192947,255.887253 
	C150.189362,274.228638 156.219147,291.106171 164.539505,307.088959 
	C174.524536,326.269440 185.224350,345.077759 195.213989,364.255951 
	C206.241501,385.426636 213.288086,407.869446 214.722748,431.837433 
	C215.691559,448.022644 213.899673,463.773865 205.956177,478.288391 
	C204.242752,481.419220 202.069077,484.298187 199.822754,487.727722 
	C202.617081,487.499207 204.764969,487.323547 207.794891,487.097229 
M156.975311,375.754364 
	C158.717529,390.585114 155.240112,404.861389 152.563644,419.260986 
	C149.556686,435.438538 146.026199,451.589386 147.954224,468.272583 
	C149.309555,480.000061 154.916290,486.953583 165.021866,488.837555 
	C178.893494,491.423676 190.934921,485.609253 197.589508,473.031250 
	C205.483047,458.111389 206.122726,442.048126 204.476227,425.789246 
	C202.191711,403.230011 193.724304,382.735107 183.635773,362.614380 
	C179.251083,353.869446 174.586426,348.927551 164.456131,351.909637 
	C163.062714,352.319855 161.467056,351.994598 159.976181,352.131439 
	C155.959763,352.500214 151.949356,352.934753 149.102264,353.224548 
	C151.789734,360.681427 154.349350,367.783630 156.975311,375.754364 
M102.188004,373.810974 
	C95.891312,387.747498 96.036255,402.069061 99.378685,417.122223 
	C113.554535,416.064728 127.448921,415.059998 141.332031,413.918152 
	C142.215698,413.845490 143.593994,412.833466 143.762222,412.048431 
	C146.762009,398.051361 150.030746,383.992920 145.643784,369.716370 
	C141.425430,355.988678 126.431641,350.601501 114.985466,359.183716 
	C110.096619,362.849365 106.650528,368.439240 102.188004,373.810974 
M356.516907,184.958649 
	C358.280090,186.735886 360.043304,188.513107 361.806519,190.290329 
	C362.463989,190.212219 363.121460,190.134109 363.778931,190.056000 
	C365.517792,182.312515 368.893860,174.510345 368.618958,166.839020 
	C368.186462,154.770615 362.523041,144.699188 349.972900,140.535141 
	C345.342255,138.998734 340.530670,137.695190 335.703827,137.148071 
	C330.599182,136.569412 325.378113,137.018219 319.304840,137.018219 
	C332.140900,153.528809 344.124268,168.942581 356.516907,184.958649 
M180.516922,190.971573 
	C178.328278,197.116379 176.139633,203.261200 173.653458,210.241364 
	C181.864731,209.685745 189.216675,209.188278 196.513458,208.694550 
	C199.767548,189.895401 202.971558,171.385681 206.228836,152.568161 
	C201.984604,151.190689 197.724152,149.807953 193.562668,148.457336 
	C189.251984,162.656189 185.062149,176.457016 180.516922,190.971573 
M223.997177,186.497253 
	C221.799393,193.168839 219.601608,199.840439 217.243958,206.997314 
	C224.729477,206.623291 231.645432,206.465927 238.506042,205.766266 
	C239.782944,205.636032 241.622314,203.459488 241.870667,202.000687 
	C243.872055,190.244919 245.554596,178.434875 247.421631,166.064209 
	C242.643356,164.456192 237.478348,162.718033 231.998260,160.873840 
	C229.251099,169.542847 226.689972,177.624756 223.997177,186.497253 
M267.237976,203.353363 
	C270.882751,203.233597 274.561218,203.360214 278.155090,202.868484 
	C279.525391,202.680984 281.594452,201.249237 281.820587,200.087738 
	C283.222534,192.886429 284.190704,185.600677 285.373291,177.883423 
	C281.255798,176.719009 277.305084,175.601776 273.644501,174.566589 
	C270.240234,183.567032 267.202423,192.071198 263.781189,200.418228 
	C262.356110,203.895142 263.719025,204.191895 267.237976,203.353363 
M173.022354,151.606583 
	C169.309738,169.226624 165.597107,186.846664 161.884476,204.466721 
	C162.674255,204.665588 163.464035,204.864471 164.253815,205.063339 
	C170.608200,185.250107 176.962570,165.436859 183.395935,145.377350 
	C179.998703,144.264969 177.879044,143.570908 175.772522,142.881165 
	C174.786942,145.826569 173.955963,148.309937 173.022354,151.606583 
M269.443024,63.994289 
	C267.393250,63.994289 265.343506,63.994289 262.190613,63.994289 
	C268.956909,72.495140 274.861725,79.913635 281.575195,88.348083 
	C284.086853,82.509804 286.486816,78.164375 287.817932,73.513069 
	C289.349426,68.161438 286.696777,64.732422 280.943176,64.051056 
	C277.452332,63.637657 273.871704,63.982849 269.443024,63.994289 
M344.485626,197.172821 
	C332.962402,193.413757 321.439148,189.654694 309.740387,185.838364 
	C307.527649,190.913147 305.443634,195.692780 303.170258,200.906631 
	C317.372314,199.835571 330.981384,198.809219 344.485626,197.172821 
M277.081726,117.077606 
	C276.914978,124.575050 282.970917,127.999756 291.298340,125.006866 
	C287.627777,120.607994 283.987579,116.245461 279.981293,111.444252 
	C278.849091,113.499161 278.075195,114.903778 277.081726,117.077606 
M212.958008,175.408493 
	C211.963272,180.884216 210.968552,186.359924 209.973831,191.835648 
	C214.235458,181.420792 217.642395,170.827332 220.724274,160.140137 
	C221.016235,159.127655 219.269363,157.527237 218.469070,156.199783 
	C217.986008,156.415329 217.502945,156.630859 217.019897,156.846390 
	C215.678284,162.746460 214.336670,168.646530 212.958008,175.408493 
M256.921814,188.281769 
	C258.589935,183.843445 260.300903,179.420639 261.913818,174.962341 
	C263.433228,170.762466 263.272705,170.586975 258.028015,169.876221 
	C256.649506,177.534439 255.269119,185.203003 253.888748,192.871552 
	C254.183685,192.965195 254.478638,193.058823 254.773575,193.152451 
	C255.368820,191.748627 255.964066,190.344788 256.921814,188.281769 
M222.229614,139.336655 
	C222.612244,140.473495 222.994873,141.610352 223.377502,142.747192 
	C223.908981,142.633698 224.440460,142.520203 224.971939,142.406708 
	C225.707230,138.334778 226.442505,134.262863 227.177780,130.190933 
	C226.769104,130.066391 226.360413,129.941833 225.951736,129.817276 
	C224.855133,132.797836 223.758530,135.778397 222.229614,139.336655 
M262.521790,155.397324 
	C263.831482,155.896576 265.141174,156.395844 267.064911,157.129166 
	C267.064911,153.346283 267.064911,150.151398 267.064911,146.956497 
	C266.718597,146.866592 266.372284,146.776672 266.025970,146.686752 
	C264.941376,149.367294 263.856781,152.047821 262.521790,155.397324 
M185.940308,120.719437 
	C185.891235,120.560898 185.869202,120.385681 185.784836,120.248901 
	C185.712814,120.132156 185.569183,120.059578 185.457230,119.967468 
	C183.878113,122.266685 182.298981,124.565903 180.438751,127.274414 
	C182.663757,127.928223 184.110550,128.353363 185.989212,128.905396 
	C185.989212,126.080223 185.989212,123.769371 185.940308,120.719437 
z" data-index="1" style="visibility: visible; opacity: 1;"></path>
<path fill="#FEFEFE" opacity="1.000000" stroke="none" d="
M207.353867,487.122559 
	C204.764969,487.323547 202.617081,487.499207 199.822754,487.727722 
	C202.069077,484.298187 204.242752,481.419220 205.956177,478.288391 
	C213.899673,463.773865 215.691559,448.022644 214.722748,431.837433 
	C213.288086,407.869446 206.241501,385.426636 195.213989,364.255951 
	C185.224350,345.077759 174.524536,326.269440 164.539505,307.088959 
	C156.219147,291.106171 150.189362,274.228638 152.192947,255.887253 
	C153.358032,245.221832 156.287994,234.730209 158.825424,224.257690 
	C159.142014,222.950989 161.864655,221.504791 163.572235,221.367859 
	C183.494614,219.770309 203.437973,218.436584 223.372208,216.984085 
	C257.758392,214.478531 292.141571,211.931915 326.527069,209.416656 
	C337.130463,208.641052 347.737213,207.911346 358.208038,207.170135 
	C356.424774,216.392288 354.320984,225.272568 353.044373,234.270218 
	C349.924927,256.255951 355.871674,276.565369 365.821442,295.826385 
	C374.981689,313.559021 384.741943,330.981079 394.182281,348.569794 
	C403.202057,365.374847 410.317078,382.933868 413.382507,401.832855 
	C416.457092,420.788513 417.040680,439.702789 407.912231,457.472900 
	C402.989075,467.056610 395.494781,473.321686 384.200592,474.154144 
	C354.634766,476.333374 325.079468,478.655945 295.513214,480.828735 
	C266.278107,482.977234 237.034668,485.012360 207.353867,487.122559 
M221.297028,380.814941 
	C221.216278,394.744110 226.932037,401.277130 244.742340,407.431488 
	C245.210617,412.617584 245.515457,417.929871 246.255554,423.180847 
	C246.529083,425.121521 247.826843,426.917877 248.657486,428.780029 
	C250.219925,427.736023 252.094040,426.965240 253.290543,425.600403 
	C258.332825,419.848938 263.030609,413.790680 268.176666,408.138031 
	C269.654663,406.514557 272.105286,405.324646 274.298096,404.894104 
	C279.504364,403.871857 284.925720,403.860565 290.075897,402.654175 
	C301.902588,399.883942 309.422180,388.288177 308.013092,375.728088 
	C306.716919,364.174744 296.449341,354.590668 284.414093,354.958832 
	C271.635010,355.349701 258.883728,356.762115 246.130203,357.844818 
	C231.739700,359.066528 224.211182,365.856262 221.297028,380.814941 
M347.217102,304.480804 
	C344.408417,292.478516 335.081299,284.651062 322.841431,285.112427 
	C309.367798,285.620270 295.898956,286.674957 282.475677,287.980713 
	C269.174286,289.274628 260.190399,300.451599 260.922455,313.994659 
	C261.588318,326.313416 271.933441,336.140015 284.727325,336.380157 
	C289.551178,336.470734 294.390472,335.890717 299.208954,336.045410 
	C301.162476,336.108185 303.446808,336.863251 304.947449,338.082581 
	C310.633606,342.702759 315.972137,347.749695 321.636810,352.398010 
	C323.393036,353.839142 325.771423,354.522003 327.864990,355.552002 
	C328.281830,353.384277 329.056946,351.214386 329.043884,349.049255 
	C329.012970,343.918915 328.608032,338.790833 328.359497,333.767548 
	C343.467316,327.344330 349.395081,318.393097 347.217102,304.480804 
M343.838348,436.163513 
	C346.845734,433.254059 346.839233,430.704132 343.424957,427.909851 
	C338.540497,423.912231 334.016022,419.475372 329.142365,415.463531 
	C327.724182,414.296112 325.630219,413.305969 323.861084,413.330231 
	C318.720825,413.400787 313.568481,413.872955 308.464386,414.527008 
	C306.899536,414.727570 305.475006,416.023529 303.986237,416.817871 
	C304.755737,418.188934 305.250610,419.851501 306.342590,420.880310 
	C310.911346,425.184906 315.659332,429.299286 320.644745,433.754272 
	C316.396118,438.879700 312.279236,443.638947 308.446045,448.616638 
	C307.491364,449.856293 307.452637,451.801361 306.992889,453.422180 
	C308.497498,453.842377 310.008545,454.635529 311.505463,454.609680 
	C315.320679,454.543854 319.126770,453.932220 322.941681,453.873322 
	C327.581360,453.801697 331.121277,452.257416 333.887878,448.296448 
	C336.733612,444.222168 340.178467,440.566315 343.838348,436.163513 
M244.265152,252.769226 
	C246.604507,249.947800 249.080566,247.224686 251.215714,244.256378 
	C252.066528,243.073608 252.706802,241.217453 252.393524,239.921539 
	C252.215057,239.183304 249.900146,238.519241 248.580505,238.577271 
	C243.425293,238.803955 238.253159,239.121979 233.151917,239.855408 
	C231.215637,240.133774 228.995850,241.210068 227.695770,242.640930 
	C223.218521,247.568588 219.160080,252.873764 214.800720,257.912811 
	C212.540115,260.525848 212.913666,262.515594 215.415344,264.665344 
	C220.595581,269.116882 225.582138,273.797394 230.839661,278.152802 
	C232.105728,279.201630 234.131470,279.858215 235.785599,279.816284 
	C240.941467,279.685608 246.102173,279.265137 251.226196,278.661713 
	C252.688873,278.489471 254.805313,277.597778 255.205994,276.513000 
	C255.576828,275.509033 254.370972,273.468384 253.309418,272.467896 
	C248.624771,268.052795 243.741425,263.848511 238.780441,259.434753 
	C240.660355,257.163025 242.246323,255.246490 244.265152,252.769226 
M170.645981,271.841095 
	C178.669571,281.971954 188.937363,285.361755 201.425064,282.092621 
	C201.582840,282.051331 201.775406,282.116180 201.920135,282.055786 
	C203.360580,281.454620 204.794403,280.837494 206.230087,280.224884 
	C205.531021,278.699127 205.196259,276.792358 204.069000,275.714417 
	C199.516205,271.360870 194.719116,267.262848 189.757095,262.843231 
	C194.174896,257.492218 198.463867,252.446243 202.537170,247.231827 
	C203.308594,246.244324 203.723190,244.426514 203.357407,243.298141 
	C203.117569,242.558212 201.174454,241.981247 200.001053,241.993500 
	C188.585220,242.112579 177.179047,242.358536 171.186600,254.790268 
	C170.695145,255.809799 169.734619,256.603455 168.991043,257.501190 
	C162.312119,265.565094 162.262680,264.335663 170.645981,271.841095 
M385.791809,441.293854 
	C387.172333,439.631104 388.560516,437.974609 389.932068,436.304474 
	C397.152100,427.512787 396.693970,429.544159 388.967102,421.171814 
	C380.240479,411.716156 370.578308,407.704529 358.110657,411.043152 
	C356.349731,411.514679 354.733856,412.527985 353.050842,413.290558 
	C353.897705,414.787781 354.447693,416.600586 355.644165,417.726166 
	C360.191345,422.003754 364.947540,426.059174 369.740265,430.299103 
	C365.280640,435.663574 361.207611,440.481384 357.234772,445.380463 
	C355.559479,447.446320 354.216217,451.000824 357.959198,450.876801 
	C367.786804,450.551117 379.096222,453.437927 385.791809,441.293854 
z" data-index="2" style="opacity: 1;"></path>
<path fill="#A0BC95" opacity="1.000000" stroke="none" d="
M156.942139,375.320068 
	C154.349350,367.783630 151.789734,360.681427 149.102264,353.224548 
	C151.949356,352.934753 155.959763,352.500214 159.976181,352.131439 
	C161.467056,351.994598 163.062714,352.319855 164.456131,351.909637 
	C174.586426,348.927551 179.251083,353.869446 183.635773,362.614380 
	C193.724304,382.735107 202.191711,403.230011 204.476227,425.789246 
	C206.122726,442.048126 205.483047,458.111389 197.589508,473.031250 
	C190.934921,485.609253 178.893494,491.423676 165.021866,488.837555 
	C154.916290,486.953583 149.309555,480.000061 147.954224,468.272583 
	C146.026199,451.589386 149.556686,435.438538 152.563644,419.260986 
	C155.240112,404.861389 158.717529,390.585114 156.942139,375.320068 
z" data-index="3" style="opacity: 1;"></path>
<path fill="#C7D3C1" opacity="1.000000" stroke="none" d="
M102.368416,373.482849 
	C106.650528,368.439240 110.096619,362.849365 114.985466,359.183716 
	C126.431641,350.601501 141.425430,355.988678 145.643784,369.716370 
	C150.030746,383.992920 146.762009,398.051361 143.762222,412.048431 
	C143.593994,412.833466 142.215698,413.845490 141.332031,413.918152 
	C127.448921,415.059998 113.554535,416.064728 99.378685,417.122223 
	C96.036255,402.069061 95.891312,387.747498 102.368416,373.482849 
z" data-index="4" style="visibility: visible;"></path>

<path fill="#000000" opacity="1.000000" stroke="none" d="
M180.694611,190.614716 
	C185.062149,176.457016 189.251984,162.656189 193.562668,148.457336 
	C197.724152,149.807953 201.984604,151.190689 206.228836,152.568161 
	C202.971558,171.385681 199.767548,189.895401 196.513458,208.694550 
	C189.216675,209.188278 181.864731,209.685745 173.653458,210.241364 
	C176.139633,203.261200 178.328278,197.116379 180.694611,190.614716 
z" data-index="6" style="visibility: hidden; opacity: 1;"></path>

<path fill="#000000" opacity="1.000000" stroke="none" d="
M266.872742,203.581100 
	C263.719025,204.191895 262.356110,203.895142 263.781189,200.418228 
	C267.202423,192.071198 270.240234,183.567032 273.644501,174.566589 
	C277.305084,175.601776 281.255798,176.719009 285.373291,177.883423 
	C284.190704,185.600677 283.222534,192.886429 281.820587,200.087738 
	C281.594452,201.249237 279.525391,202.680984 278.155090,202.868484 
	C274.561218,203.360214 270.882751,203.233597 266.872742,203.581100 
z" data-index="8" style="opacity: 1; visibility: hidden;"></path>

<path fill="#000000" opacity="1.000000" stroke="none" d="
M269.887207,63.990768 
	C273.871704,63.982849 277.452332,63.637657 280.943176,64.051056 
	C286.696777,64.732422 289.349426,68.161438 287.817932,73.513069 
	C286.486816,78.164375 284.086853,82.509804 281.575195,88.348083 
	C274.861725,79.913635 268.956909,72.495140 262.190613,63.994289 
	C265.343506,63.994289 267.393250,63.994289 269.887207,63.990768 
z" data-index="10" style="visibility: hidden; opacity: 1;"></path>

<path fill="#000000" opacity="1.000000" stroke="none" d="
M277.191528,116.693001 
	C278.075195,114.903778 278.849091,113.499161 279.981293,111.444252 
	C283.987579,116.245461 287.627777,120.607994 291.298340,125.006866 
	C282.970917,127.999756 276.914978,124.575050 277.191528,116.693001 
z" data-index="12" style="opacity: 1; visibility: hidden;"></path>

<path fill="#000000" opacity="1.000000" stroke="none" d="
M256.740570,188.611359 
	C255.964066,190.344788 255.368820,191.748627 254.773575,193.152451 
	C254.478638,193.058823 254.183685,192.965195 253.888748,192.871552 
	C255.269119,185.203003 256.649506,177.534439 258.028015,169.876221 
	C263.272705,170.586975 263.433228,170.762466 261.913818,174.962341 
	C260.300903,179.420639 258.589935,183.843445 256.740570,188.611359 
z" data-index="14" style="visibility: hidden; opacity: 1;"></path>

<path fill="#000000" opacity="1.000000" stroke="none" d="
M262.646973,155.062836 
	C263.856781,152.047821 264.941376,149.367294 266.025970,146.686752 
	C266.372284,146.776672 266.718597,146.866592 267.064911,146.956497 
	C267.064911,150.151398 267.064911,153.346283 267.064911,157.129166 
	C265.141174,156.395844 263.831482,155.896576 262.646973,155.062836 
z" data-index="16" style="opacity: 1; visibility: hidden;"></path>

<path fill="#398A60" opacity="1.000000" stroke="none" d="
M221.323044,380.395569 
	C224.211182,365.856262 231.739700,359.066528 246.130203,357.844818 
	C258.883728,356.762115 271.635010,355.349701 284.414093,354.958832 
	C296.449341,354.590668 306.716919,364.174744 308.013092,375.728088 
	C309.422180,388.288177 301.902588,399.883942 290.075897,402.654175 
	C284.925720,403.860565 279.504364,403.871857 274.298096,404.894104 
	C272.105286,405.324646 269.654663,406.514557 268.176666,408.138031 
	C263.030609,413.790680 258.332825,419.848938 253.290543,425.600403 
	C252.094040,426.965240 250.219925,427.736023 248.657486,428.780029 
	C247.826843,426.917877 246.529083,425.121521 246.255554,423.180847 
	C245.515457,417.929871 245.210617,412.617584 244.742340,407.431488 
	C226.932037,401.277130 221.216278,394.744110 221.323044,380.395569 
z" data-index="18" style="opacity: 1;"></path>
<path fill="#398A60" opacity="1.000000" stroke="none" d="
M347.313354,304.887451 
	C349.395081,318.393097 343.467316,327.344330 328.359497,333.767548 
	C328.608032,338.790833 329.012970,343.918915 329.043884,349.049255 
	C329.056946,351.214386 328.281830,353.384277 327.864990,355.552002 
	C325.771423,354.522003 323.393036,353.839142 321.636810,352.398010 
	C315.972137,347.749695 310.633606,342.702759 304.947449,338.082581 
	C303.446808,336.863251 301.162476,336.108185 299.208954,336.045410 
	C294.390472,335.890717 289.551178,336.470734 284.727325,336.380157 
	C271.933441,336.140015 261.588318,326.313416 260.922455,313.994659 
	C260.190399,300.451599 269.174286,289.274628 282.475677,287.980713 
	C295.898956,286.674957 309.367798,285.620270 322.841431,285.112427 
	C335.081299,284.651062 344.408417,292.478516 347.313354,304.887451 
z" data-index="19" style="opacity: 1;"></path>
<path fill="#3B8B62" opacity="1.000000" stroke="none" d="
M343.599762,436.445435 
	C340.178467,440.566315 336.733612,444.222168 333.887878,448.296448 
	C331.121277,452.257416 327.581360,453.801697 322.941681,453.873322 
	C319.126770,453.932220 315.320679,454.543854 311.505463,454.609680 
	C310.008545,454.635529 308.497498,453.842377 306.992889,453.422180 
	C307.452637,451.801361 307.491364,449.856293 308.446045,448.616638 
	C312.279236,443.638947 316.396118,438.879700 320.644745,433.754272 
	C315.659332,429.299286 310.911346,425.184906 306.342590,420.880310 
	C305.250610,419.851501 304.755737,418.188934 303.986237,416.817871 
	C305.475006,416.023529 306.899536,414.727570 308.464386,414.527008 
	C313.568481,413.872955 318.720825,413.400787 323.861084,413.330231 
	C325.630219,413.305969 327.724182,414.296112 329.142365,415.463531 
	C334.016022,419.475372 338.540497,423.912231 343.424957,427.909851 
	C346.839233,430.704132 346.845734,433.254059 343.599762,436.445435 
z" data-index="20"></path>
<path fill="#3A8B62" opacity="1.000000" stroke="none" d="
M244.048721,253.049591 
	C242.246323,255.246490 240.660355,257.163025 238.780441,259.434753 
	C243.741425,263.848511 248.624771,268.052795 253.309418,272.467896 
	C254.370972,273.468384 255.576828,275.509033 255.205994,276.513000 
	C254.805313,277.597778 252.688873,278.489471 251.226196,278.661713 
	C246.102173,279.265137 240.941467,279.685608 235.785599,279.816284 
	C234.131470,279.858215 232.105728,279.201630 230.839661,278.152802 
	C225.582138,273.797394 220.595581,269.116882 215.415344,264.665344 
	C212.913666,262.515594 212.540115,260.525848 214.800720,257.912811 
	C219.160080,252.873764 223.218521,247.568588 227.695770,242.640930 
	C228.995850,241.210068 231.215637,240.133774 233.151917,239.855408 
	C238.253159,239.121979 243.425293,238.803955 248.580505,238.577271 
	C249.900146,238.519241 252.215057,239.183304 252.393524,239.921539 
	C252.706802,241.217453 252.066528,243.073608 251.215714,244.256378 
	C249.080566,247.224686 246.604507,249.947800 244.048721,253.049591 
z" data-index="21" style="visibility: visible;"></path>
<path fill="#3A8B62" opacity="1.000000" stroke="none" d="
M170.386871,271.600769 
	C162.262680,264.335663 162.312119,265.565094 168.991043,257.501190 
	C169.734619,256.603455 170.695145,255.809799 171.186600,254.790268 
	C177.179047,242.358536 188.585220,242.112579 200.001053,241.993500 
	C201.174454,241.981247 203.117569,242.558212 203.357407,243.298141 
	C203.723190,244.426514 203.308594,246.244324 202.537170,247.231827 
	C198.463867,252.446243 194.174896,257.492218 189.757095,262.843231 
	C194.719116,267.262848 199.516205,271.360870 204.069000,275.714417 
	C205.196259,276.792358 205.531021,278.699127 206.230087,280.224884 
	C204.794403,280.837494 203.360580,281.454620 201.920135,282.055786 
	C201.775406,282.116180 201.582840,282.051331 201.425064,282.092621 
	C188.937363,285.361755 178.669571,281.971954 170.386871,271.600769 
z" data-index="22" style="opacity: 1;"></path>
<path fill="#3A8B62" opacity="1.000000" stroke="none" d="
M385.557159,441.563263 
	C379.096222,453.437927 367.786804,450.551117 357.959198,450.876801 
	C354.216217,451.000824 355.559479,447.446320 357.234772,445.380463 
	C361.207611,440.481384 365.280640,435.663574 369.740265,430.299103 
	C364.947540,426.059174 360.191345,422.003754 355.644165,417.726166 
	C354.447693,416.600586 353.897705,414.787781 353.050842,413.290558 
	C354.733856,412.527985 356.349731,411.514679 358.110657,411.043152 
	C370.578308,407.704529 380.240479,411.716156 388.967102,421.171814 
	C396.693970,429.544159 397.152100,427.512787 389.932068,436.304474 
	C388.560516,437.974609 387.172333,439.631104 385.557159,441.563263 
z" data-index="23"></path>
</svg>